<mxfile host="app.diagrams.net" agent="Mozilla/5.0 (Windows NT 10.0; Win64; x64) AppleWebKit/537.36 (KHTML, like Gecko) Chrome/133.0.0.0 Safari/537.36 Edg/133.0.0.0" version="26.1.0">
  <diagram name="Страница — 1" id="MKQVsVoFEd8CPdGX7NNc">
    <mxGraphModel dx="664" dy="893" grid="1" gridSize="10" guides="1" tooltips="1" connect="1" arrows="1" fold="1" page="1" pageScale="1" pageWidth="827" pageHeight="1169" math="0" shadow="0">
      <root>
        <mxCell id="0" />
        <mxCell id="1" parent="0" />
        <mxCell id="OdFbX2ZTFihANl9gvUOe-3" style="edgeStyle=orthogonalEdgeStyle;rounded=0;orthogonalLoop=1;jettySize=auto;html=1;entryX=0.5;entryY=0;entryDx=0;entryDy=0;" edge="1" parent="1" source="OdFbX2ZTFihANl9gvUOe-1" target="OdFbX2ZTFihANl9gvUOe-2">
          <mxGeometry relative="1" as="geometry" />
        </mxCell>
        <mxCell id="OdFbX2ZTFihANl9gvUOe-1" value="FreeNode&lt;div&gt;Начало&lt;/div&gt;" style="strokeWidth=2;html=1;shape=mxgraph.flowchart.terminator;whiteSpace=wrap;" vertex="1" parent="1">
          <mxGeometry x="200" y="40" width="160" height="40" as="geometry" />
        </mxCell>
        <mxCell id="OdFbX2ZTFihANl9gvUOe-7" style="edgeStyle=orthogonalEdgeStyle;rounded=0;orthogonalLoop=1;jettySize=auto;html=1;" edge="1" parent="1" source="OdFbX2ZTFihANl9gvUOe-2" target="OdFbX2ZTFihANl9gvUOe-4">
          <mxGeometry relative="1" as="geometry" />
        </mxCell>
        <mxCell id="OdFbX2ZTFihANl9gvUOe-2" value="Index" style="shape=parallelogram;perimeter=parallelogramPerimeter;whiteSpace=wrap;html=1;fixedSize=1;" vertex="1" parent="1">
          <mxGeometry x="200" y="120" width="160" height="40" as="geometry" />
        </mxCell>
        <mxCell id="OdFbX2ZTFihANl9gvUOe-8" style="edgeStyle=orthogonalEdgeStyle;rounded=0;orthogonalLoop=1;jettySize=auto;html=1;entryX=0.5;entryY=0;entryDx=0;entryDy=0;" edge="1" parent="1" source="OdFbX2ZTFihANl9gvUOe-4" target="OdFbX2ZTFihANl9gvUOe-5">
          <mxGeometry relative="1" as="geometry" />
        </mxCell>
        <mxCell id="OdFbX2ZTFihANl9gvUOe-4" value="Nodes[Index].Next := FreeList" style="rounded=0;whiteSpace=wrap;html=1;" vertex="1" parent="1">
          <mxGeometry x="200" y="200" width="160" height="40" as="geometry" />
        </mxCell>
        <mxCell id="OdFbX2ZTFihANl9gvUOe-9" style="edgeStyle=orthogonalEdgeStyle;rounded=0;orthogonalLoop=1;jettySize=auto;html=1;entryX=0.5;entryY=0;entryDx=0;entryDy=0;" edge="1" parent="1" source="OdFbX2ZTFihANl9gvUOe-5" target="OdFbX2ZTFihANl9gvUOe-6">
          <mxGeometry relative="1" as="geometry" />
        </mxCell>
        <mxCell id="OdFbX2ZTFihANl9gvUOe-5" value="FreeList := Index" style="rounded=0;whiteSpace=wrap;html=1;" vertex="1" parent="1">
          <mxGeometry x="200" y="280" width="160" height="40" as="geometry" />
        </mxCell>
        <mxCell id="OdFbX2ZTFihANl9gvUOe-6" value="Dec(Count)" style="rounded=0;whiteSpace=wrap;html=1;" vertex="1" parent="1">
          <mxGeometry x="200" y="360" width="160" height="40" as="geometry" />
        </mxCell>
        <mxCell id="OdFbX2ZTFihANl9gvUOe-10" value="FreeNode&lt;div&gt;Конец&lt;/div&gt;" style="strokeWidth=2;html=1;shape=mxgraph.flowchart.terminator;whiteSpace=wrap;" vertex="1" parent="1">
          <mxGeometry x="200" y="440" width="160" height="40" as="geometry" />
        </mxCell>
        <mxCell id="OdFbX2ZTFihANl9gvUOe-11" style="edgeStyle=orthogonalEdgeStyle;rounded=0;orthogonalLoop=1;jettySize=auto;html=1;entryX=0.5;entryY=0;entryDx=0;entryDy=0;entryPerimeter=0;" edge="1" parent="1" source="OdFbX2ZTFihANl9gvUOe-6" target="OdFbX2ZTFihANl9gvUOe-10">
          <mxGeometry relative="1" as="geometry" />
        </mxCell>
      </root>
    </mxGraphModel>
  </diagram>
</mxfile>
